<mxfile host="Electron" agent="Mozilla/5.0 (X11; Linux x86_64) AppleWebKit/537.36 (KHTML, like Gecko) draw.io/26.2.2 Chrome/134.0.6998.178 Electron/35.1.2 Safari/537.36" version="26.2.2">
  <diagram name="Page-1" id="rxvXdwSGut-G8-Gg94Z3">
    <mxGraphModel dx="739" dy="583" grid="1" gridSize="9.8425" guides="1" tooltips="1" connect="1" arrows="1" fold="1" page="1" pageScale="1" pageWidth="827" pageHeight="1169" math="0" shadow="0">
      <root>
        <mxCell id="0" />
        <mxCell id="1" parent="0" />
        <mxCell id="R_XJMb-TOunIFuDD4JC9-1" value="D1" style="rounded=0;whiteSpace=wrap;html=1;fontFamily=computer modern;" vertex="1" parent="1">
          <mxGeometry x="118" y="275.59" width="39.37" height="39.37" as="geometry" />
        </mxCell>
        <mxCell id="R_XJMb-TOunIFuDD4JC9-2" value="D2" style="rounded=0;whiteSpace=wrap;html=1;fontFamily=computer modern;" vertex="1" parent="1">
          <mxGeometry x="235.7825" y="275.5825" width="39.37" height="39.37" as="geometry" />
        </mxCell>
        <mxCell id="R_XJMb-TOunIFuDD4JC9-3" value="D3" style="rounded=0;whiteSpace=wrap;html=1;fontFamily=computer modern;" vertex="1" parent="1">
          <mxGeometry x="354.2149999999999" y="275.585" width="39.37" height="39.37" as="geometry" />
        </mxCell>
        <mxCell id="R_XJMb-TOunIFuDD4JC9-4" value="" style="endArrow=classic;html=1;rounded=0;fontFamily=computer modern;" edge="1" parent="1">
          <mxGeometry width="50" height="50" relative="1" as="geometry">
            <mxPoint x="166.78" y="285.43" as="sourcePoint" />
            <mxPoint x="225.78" y="285.43" as="targetPoint" />
          </mxGeometry>
        </mxCell>
        <mxCell id="R_XJMb-TOunIFuDD4JC9-6" value="sync D1" style="edgeLabel;html=1;align=center;verticalAlign=middle;resizable=0;points=[];fontFamily=computer modern;labelBackgroundColor=none;fontSize=10;" vertex="1" connectable="0" parent="R_XJMb-TOunIFuDD4JC9-4">
          <mxGeometry x="0.0522" y="-1" relative="1" as="geometry">
            <mxPoint x="-1" y="-11" as="offset" />
          </mxGeometry>
        </mxCell>
        <mxCell id="R_XJMb-TOunIFuDD4JC9-10" value="D1" style="rounded=0;whiteSpace=wrap;html=1;fontFamily=computer modern;" vertex="1" parent="1">
          <mxGeometry x="432.7825" y="275.5825" width="39.37" height="39.37" as="geometry" />
        </mxCell>
        <mxCell id="R_XJMb-TOunIFuDD4JC9-11" value="D2" style="rounded=0;whiteSpace=wrap;html=1;fontFamily=computer modern;" vertex="1" parent="1">
          <mxGeometry x="550.565" y="275.575" width="39.37" height="39.37" as="geometry" />
        </mxCell>
        <mxCell id="R_XJMb-TOunIFuDD4JC9-12" value="D3" style="rounded=0;whiteSpace=wrap;html=1;fontFamily=computer modern;" vertex="1" parent="1">
          <mxGeometry x="668.9975" y="275.5775" width="39.37" height="39.37" as="geometry" />
        </mxCell>
        <mxCell id="R_XJMb-TOunIFuDD4JC9-13" value="" style="endArrow=classic;html=1;rounded=0;fontFamily=computer modern;" edge="1" parent="1">
          <mxGeometry width="50" height="50" relative="1" as="geometry">
            <mxPoint x="481.5625" y="294.9825" as="sourcePoint" />
            <mxPoint x="540.5625" y="294.9825" as="targetPoint" />
          </mxGeometry>
        </mxCell>
        <mxCell id="R_XJMb-TOunIFuDD4JC9-14" value="sync D2" style="edgeLabel;html=1;align=center;verticalAlign=middle;resizable=0;points=[];fontFamily=computer modern;labelBackgroundColor=none;fontSize=10;" vertex="1" connectable="0" parent="R_XJMb-TOunIFuDD4JC9-13">
          <mxGeometry x="0.0522" y="-1" relative="1" as="geometry">
            <mxPoint x="-1" y="-11" as="offset" />
          </mxGeometry>
        </mxCell>
        <mxCell id="R_XJMb-TOunIFuDD4JC9-17" value="" style="endArrow=classic;html=1;rounded=0;fontFamily=computer modern;" edge="1" parent="1">
          <mxGeometry width="50" height="50" relative="1" as="geometry">
            <mxPoint x="600.105" y="294.98499999999996" as="sourcePoint" />
            <mxPoint x="659.105" y="294.98499999999996" as="targetPoint" />
          </mxGeometry>
        </mxCell>
        <mxCell id="R_XJMb-TOunIFuDD4JC9-18" value="sync D3" style="edgeLabel;html=1;align=center;verticalAlign=middle;resizable=0;points=[];fontFamily=computer modern;labelBackgroundColor=none;fontSize=10;" vertex="1" connectable="0" parent="R_XJMb-TOunIFuDD4JC9-17">
          <mxGeometry x="0.0522" y="-1" relative="1" as="geometry">
            <mxPoint x="-1" y="-11" as="offset" />
          </mxGeometry>
        </mxCell>
        <mxCell id="R_XJMb-TOunIFuDD4JC9-19" value="" style="endArrow=classic;html=1;rounded=0;fontFamily=computer modern;" edge="1" parent="1">
          <mxGeometry width="50" height="50" relative="1" as="geometry">
            <mxPoint x="167.21249999999995" y="305.11249999999995" as="sourcePoint" />
            <mxPoint x="226.21249999999995" y="305.11249999999995" as="targetPoint" />
          </mxGeometry>
        </mxCell>
        <mxCell id="R_XJMb-TOunIFuDD4JC9-20" value="sync D3" style="edgeLabel;html=1;align=center;verticalAlign=middle;resizable=0;points=[];fontFamily=computer modern;labelBackgroundColor=none;fontSize=10;" vertex="1" connectable="0" parent="R_XJMb-TOunIFuDD4JC9-19">
          <mxGeometry x="0.0522" y="-1" relative="1" as="geometry">
            <mxPoint x="-1" y="-11" as="offset" />
          </mxGeometry>
        </mxCell>
        <mxCell id="R_XJMb-TOunIFuDD4JC9-21" value="" style="endArrow=classic;html=1;rounded=0;fontFamily=computer modern;" edge="1" parent="1">
          <mxGeometry width="50" height="50" relative="1" as="geometry">
            <mxPoint x="285.32499999999993" y="295.0249999999999" as="sourcePoint" />
            <mxPoint x="344.32499999999993" y="295.0249999999999" as="targetPoint" />
          </mxGeometry>
        </mxCell>
        <mxCell id="R_XJMb-TOunIFuDD4JC9-22" value="sync D3" style="edgeLabel;html=1;align=center;verticalAlign=middle;resizable=0;points=[];fontFamily=computer modern;labelBackgroundColor=none;fontSize=10;" vertex="1" connectable="0" parent="R_XJMb-TOunIFuDD4JC9-21">
          <mxGeometry x="0.0522" y="-1" relative="1" as="geometry">
            <mxPoint x="-1" y="-11" as="offset" />
          </mxGeometry>
        </mxCell>
        <mxCell id="R_XJMb-TOunIFuDD4JC9-23" value="" style="endArrow=none;dashed=1;html=1;dashPattern=1 3;strokeWidth=0.7874;rounded=0;" edge="1" parent="1">
          <mxGeometry width="50" height="50" relative="1" as="geometry">
            <mxPoint x="413" y="325" as="sourcePoint" />
            <mxPoint x="413" y="256" as="targetPoint" />
          </mxGeometry>
        </mxCell>
      </root>
    </mxGraphModel>
  </diagram>
</mxfile>
